<svg xmlns="http://www.w3.org/2000/svg" viewBox="0 0 64 64" role="img" aria-label="Bitcoin Peer Map">
  <defs>
    <radialGradient id="field" cx="50%" cy="42%" r="72%">
      <stop offset="0%" stop-color="#19202b"/>
      <stop offset="62%" stop-color="#0a0e14"/>
      <stop offset="100%" stop-color="#06080c"/>
    </radialGradient>
    <linearGradient id="ring" x1="10" y1="8" x2="54" y2="56" gradientUnits="userSpaceOnUse">
      <stop offset="0%" stop-color="#7ec8e3"/>
      <stop offset="56%" stop-color="#4a90d9"/>
      <stop offset="100%" stop-color="#2d5a8e"/>
    </linearGradient>
    <filter id="softGlow" x="-40%" y="-40%" width="180%" height="180%">
      <feGaussianBlur stdDeviation="1.4" result="blur"/>
      <feMerge>
        <feMergeNode in="blur"/>
        <feMergeNode in="SourceGraphic"/>
      </feMerge>
    </filter>
  </defs>

  <rect width="64" height="64" rx="14" fill="url(#field)"/>
  <circle cx="32" cy="32" r="23" fill="none" stroke="#253040" stroke-width="2"/>
  <path d="M10 34c7-6 15-9 24-8 8 1 15 5 20 12" fill="none" stroke="#2d5a8e" stroke-width="2.2" stroke-linecap="round" opacity=".8"/>
  <path d="M12 46c8-9 17-14 29-14 5 0 9 1 12 3" fill="none" stroke="#58a6ff" stroke-width="1.6" stroke-linecap="round" opacity=".65"/>
  <path d="M32 10c5 6 7 13 7 22s-2 16-7 22" fill="none" stroke="#253040" stroke-width="2" stroke-linecap="round"/>
  <path d="M32 10c-5 6-7 13-7 22s2 16 7 22" fill="none" stroke="#253040" stroke-width="2" stroke-linecap="round"/>

  <circle cx="32" cy="32" r="18" fill="none" stroke="url(#ring)" stroke-width="4.8"/>
  <circle cx="17" cy="42" r="3.2" fill="#e3b341" filter="url(#softGlow)"/>
  <circle cx="48" cy="20" r="2.8" fill="#7ec8e3" filter="url(#softGlow)"/>
  <circle cx="50" cy="42" r="2.6" fill="#f07178" filter="url(#softGlow)"/>

  <circle cx="32" cy="32" r="13" fill="#111820" stroke="#e3b341" stroke-width="2"/>
  <g fill="#e3b341">
    <rect x="27" y="17" width="3" height="8" rx="1"/>
    <rect x="34" y="17" width="3" height="8" rx="1"/>
    <rect x="27" y="39" width="3" height="8" rx="1"/>
    <rect x="34" y="39" width="3" height="8" rx="1"/>
    <path d="M24 22h12c4.9 0 7.8 2.5 7.8 6.3 0 2.4-1.4 4.3-3.8 5.1 2.9.8 4.6 2.8 4.6 5.8 0 4.3-3.2 6.8-8.5 6.8H24V22Zm6 4.8v4.8h5.1c1.8 0 2.8-.9 2.8-2.4s-1-2.4-2.9-2.4H30Zm0 9.1v5.3h5.8c2 0 3.1-.9 3.1-2.6s-1.1-2.7-3.2-2.7H30Z"/>
  </g>
</svg>
